<svg width="24" height="24" viewBox="0 0 24 24" fill="none" xmlns="http://www.w3.org/2000/svg">
<path d="M7.18042 2.5H16.8201C18.6148 2.5 20.0873 3.92223 20.1853 5.69043L20.1902 5.8623V19.9502C20.1901 20.7459 19.9102 21.1865 19.5935 21.373C19.3165 21.536 18.884 21.5798 18.3152 21.3291L18.0632 21.2031L13.1863 18.4951H13.1873C12.838 18.2965 12.4091 18.2129 12.0085 18.2129C11.6576 18.2129 11.2852 18.277 10.9617 18.4248L10.8269 18.4932L5.94897 21.2021C5.25534 21.5841 4.73478 21.5524 4.41675 21.3652C4.09915 21.1782 3.82011 20.7396 3.82007 19.9502V5.86035C3.82007 4.01565 5.3274 2.5 7.18042 2.5ZM9.5564 7.83203C8.94176 7.67896 8.30343 8.01123 8.073 8.61035L8.06909 8.62109C7.8371 9.26759 8.16807 9.98493 8.82007 10.2197V10.2207C9.8436 10.59 10.9212 10.7802 11.9998 10.7803C12.9437 10.7803 13.8869 10.6345 14.7937 10.3506L15.1794 10.2207C15.8321 9.98621 16.1626 9.26791 15.9304 8.62109C15.696 7.96827 14.9777 7.63691 14.3308 7.86914C12.8303 8.40968 11.1799 8.40968 9.67944 7.86914L9.5564 7.83203Z" fill="#111827" stroke="#111827"/>
</svg>
