<svg width="22" height="23" viewBox="0 0 22 23" fill="none" xmlns="http://www.w3.org/2000/svg">
<g clip-path="url(#clip0_3096_4855)">
<path d="M21.9884 11.7151C21.9884 10.7728 21.9135 10.0852 21.7516 9.37207H11.2191V13.6251H17.4014C17.2768 14.6821 16.6037 16.2738 15.108 17.3434L15.087 17.4858L18.4172 20.1214L18.6479 20.1449C20.7668 18.1457 21.9884 15.2042 21.9884 11.7151Z" fill="#4285F4"/>
<path d="M11.2192 22.9214C14.248 22.9214 16.7907 21.9026 18.648 20.1454L15.1081 17.3439C14.1608 18.0188 12.8894 18.4899 11.2192 18.4899C8.25267 18.4899 5.73487 16.4908 4.83735 13.7275L4.70579 13.739L1.24304 16.4767L1.19775 16.6053C3.04247 20.3491 6.83167 22.9214 11.2192 22.9214Z" fill="#34A853"/>
<path d="M4.83737 13.7267C4.60055 13.0136 4.4635 12.2495 4.4635 11.46C4.4635 10.6705 4.60055 9.9065 4.82491 9.19341L4.81864 9.04154L1.31249 6.25977L1.19778 6.31551C0.43748 7.86906 0.0012207 9.61364 0.0012207 11.46C0.0012207 13.3065 0.43748 15.0509 1.19778 16.6045L4.83737 13.7267Z" fill="#FBBC05"/>
<path d="M11.2191 4.43136C13.3255 4.43136 14.7464 5.36093 15.5567 6.13775L18.7226 2.97973C16.7782 1.13332 14.2479 0 11.2191 0C6.83154 0 3.04235 2.57223 1.19763 6.31596L4.82477 9.19386C5.73475 6.43061 8.25254 4.43136 11.2191 4.43136Z" fill="#EB4335"/>
</g>
<defs>
<clipPath id="clip0_3096_4855">
<rect width="22" height="23" fill="white"/>
</clipPath>
</defs>
</svg>
