<svg xmlns="http://www.w3.org/2000/svg" id="Girlreadingbookinlibrary" viewBox="0 0 982.444 905.78">
  <g id="c" fill="#000000" class="color000000 svgShape">
    <rect width="909.841" height="669.298" x="72.05" y="235.929" rx="33.365" ry="33.365" fill="none" stroke="#c9ccd1" stroke-dasharray="0 0 13.029 13.029" stroke-miterlimit="10" stroke-width="1.106px" class="colorStroked1cfc9 svgStroke"></rect>
    <rect width="305.069" height="459.087" y="72.922" fill="#c0cce2" class="colore2dcc0 svgShape"></rect>
    <rect width="134.374" height="211.929" x="12.659" y="86.741" fill="#ffffff" class="colorffffff svgShape"></rect>
    <rect width="134.374" height="211.929" x="12.659" y="306.261" fill="#ffffff" class="colorffffff svgShape"></rect>
    <rect width="134.374" height="211.929" x="158.036" y="86.741" fill="#ffffff" class="colorffffff svgShape"></rect>
    <rect width="134.374" height="211.929" x="158.036" y="306.261" fill="#ffffff" class="colorffffff svgShape"></rect>
    <rect width="305.069" height="459.087" x="624.382" y="72.922" fill="#c0cce2" class="colore2dcc0 svgShape"></rect>
    <rect width="134.374" height="211.929" x="637.041" y="86.741" fill="#ffffff" class="colorffffff svgShape"></rect>
    <rect width="134.374" height="211.929" x="637.041" y="306.261" fill="#ffffff" class="colorffffff svgShape"></rect>
    <rect width="134.374" height="211.929" x="782.419" y="86.741" fill="#ffffff" class="colorffffff svgShape"></rect>
    <rect width="134.374" height="211.929" x="782.419" y="306.261" fill="#ffffff" class="colorffffff svgShape"></rect>
    <circle cx="469.555" cy="116.122" r="41.772" transform="rotate(-67.609 469.557 116.121)" fill="#a6bce3" stroke="#444445" stroke-miterlimit="10" stroke-width="2.689px" class="colore3d9a6 svgShape colorStroke444445 svgStroke"></circle>
    <polyline points="469.555 98.263 469.555 116.122 497.758 116.122" fill="none" stroke="#424243" stroke-miterlimit="10" stroke-width="2.689px"></polyline>
    <rect width="6.718" height="108.632" x="149.175" fill="#4c4c4d" class="color4d4c4d svgShape"></rect>
    <path d="m115.121,120.73h74.826c23.772,0,43.071,19.3,43.071,43.071H72.05c0-23.772,19.3-43.071,43.071-43.071Z" fill="#85a4dd" class="colorddc385 svgShape"></path>
    <rect width="54.441" height="16.803" x="125.314" y="103.928" fill="#6f97e1" class="colore1a36f svgShape"></rect>
    <rect width="6.718" height="108.632" x="753.832" fill="#4c4c4d" class="color4d4c4d svgShape"></rect>
    <path d="m719.778,120.73h74.826c23.772,0,43.071,19.3,43.071,43.071h-160.969c0-23.772,19.3-43.071,43.071-43.071Z" fill="#85a4dd" class="colorddc385 svgShape"></path>
    <rect width="54.441" height="16.803" x="729.97" y="103.928" fill="#6f97e1" class="colore1a36f svgShape"></rect>
    <path d="m939.092,765.194v20.311c0,5.508-4.506,10.014-10.014,10.014h-135.689l19.81,109.707h-15.533l-19.81-109.707h-458.401l-19.81,109.707h-14.455l19.81-109.707h-138.781c-5.508,0-10.014-4.506-10.014-10.014v-20.311c0-5.508,4.506-10.014,10.014-10.014h762.859c5.508,0,10.014,4.506,10.014,10.014Z" fill="#6f97e1" class="colore1a36f svgShape"></path>
    <path d="m259.929,651.806v6.738c0,2.579,2.095,4.666,4.666,4.666h53.844c0,1.695-1.374,3.07-3.07,3.07h-127.664c-4.391,0-7.951-3.56-7.951-7.951v-6.316c0-4.387,3.556-7.943,7.943-7.943h127.671c1.695,0,3.07,1.374,3.07,3.07h0s-53.844,0-53.844,0c-2.571,0-4.666,2.087-4.666,4.666Z" fill="#91a7ce" class="colorceaa91 svgShape"></path>
    <path d="m318.439,647.14v16.07h-49.945c-2.433,0-4.405-1.972-4.405-4.413v-7.245c0-2.44,1.972-4.413,4.405-4.413h49.945Z" fill="#e9e9ea" class="coloreaeae9 svgShape"></path>
    <path d="m268.494,663.21h-3.899c-2.571,0-4.666-2.087-4.666-4.666v-6.738c0-2.579,2.095-4.666,4.666-4.666h3.899c-2.433,0-4.405,1.972-4.405,4.413v7.245c0,2.44,1.972,4.413,4.405,4.413Z" fill="#6f97e1" class="colore1a36f svgShape"></path>
    <rect width="73.313" height="10.293" x="183.911" y="650.571" fill="#49494a" class="color49494a svgShape"></rect>
    <path d="m259.929,741.67v6.738c0,2.579,2.095,4.666,4.666,4.666h53.844c0,1.695-1.374,3.07-3.07,3.07h-127.664c-4.391,0-7.951-3.56-7.951-7.951v-6.316c0-4.387,3.556-7.943,7.943-7.943h127.671c1.695,0,3.07,1.374,3.07,3.07h0s-53.844,0-53.844,0c-2.571,0-4.666,2.087-4.666,4.666Z" fill="#91a7ce" class="colorceaa91 svgShape"></path>
    <path d="m318.439,737.004v16.07h-49.945c-2.433,0-4.405-1.972-4.405-4.413v-7.245c0-2.44,1.972-4.413,4.405-4.413h49.945Z" fill="#e9e9ea" class="coloreaeae9 svgShape"></path>
    <path d="m268.494,753.074h-3.899c-2.571,0-4.666-2.087-4.666-4.666v-6.738c0-2.579,2.095-4.666,4.666-4.666h3.899c-2.433,0-4.405,1.972-4.405,4.413v7.245c0,2.44,1.972,4.413,4.405,4.413Z" fill="#6f97e1" class="colore1a36f svgShape"></path>
    <rect width="73.313" height="10.293" x="183.911" y="740.435" fill="#49494a" class="color49494a svgShape"></rect>
    <path d="m238.265,674.22v6.841c0,2.618-2.095,4.737-4.666,4.737h-53.844c0,1.721,1.374,3.117,3.07,3.117h127.664c4.391,0,7.951-3.614,7.951-8.072v-6.412c0-4.454-3.556-8.064-7.943-8.064h-127.671c-1.695,0-3.07,1.395-3.07,3.117h0s53.844,0,53.844,0c2.571,0,4.666,2.119,4.666,4.737Z" fill="#1769ff" class="color6f9f9e svgShape"></path>
    <path d="m179.755,669.483v16.315h49.945c2.433,0,4.405-2.002,4.405-4.48v-7.355c0-2.478-1.972-4.48-4.405-4.48h-49.945Z" fill="#e9e9ea" class="coloreaeae9 svgShape"></path>
    <path d="m229.7,685.798h3.899c2.571,0,4.666-2.119,4.666-4.737v-6.841c0-2.618-2.095-4.737-4.666-4.737h-3.899c2.433,0,4.405,2.002,4.405,4.48v7.355c0,2.478-1.972,4.48-4.405,4.48Z" fill="#bec5d3" class="colord3cfbe svgShape"></path>
    <rect width="73.313" height="10.45" x="240.969" y="672.966" fill="#49494a" class="color49494a svgShape"></rect>
    <path d="m259.929,696.738v6.738c0,2.579,2.095,4.666,4.666,4.666h53.844c0,1.695-1.374,3.07-3.07,3.07h-127.664c-4.391,0-7.951-3.56-7.951-7.951v-6.316c0-4.387,3.556-7.943,7.943-7.943h127.671c1.695,0,3.07,1.374,3.07,3.07h0s-53.844,0-53.844,0c-2.571,0-4.666,2.087-4.666,4.666Z" fill="#91a7ce" class="colorceaa91 svgShape"></path>
    <path d="m318.439,692.072v16.07h-49.945c-2.433,0-4.405-1.972-4.405-4.413v-7.245c0-2.44,1.972-4.413,4.405-4.413h49.945Z" fill="#e9e9ea" class="coloreaeae9 svgShape"></path>
    <path d="m268.494,708.142h-3.899c-2.571,0-4.666-2.087-4.666-4.666v-6.738c0-2.579,2.095-4.666,4.666-4.666h3.899c-2.433,0-4.405,1.972-4.405,4.413v7.245c0,2.44,1.972,4.413,4.405,4.413Z" fill="#6f97e1" class="colore1a36f svgShape"></path>
    <rect width="73.313" height="10.293" x="183.911" y="695.503" fill="#49494a" class="color49494a svgShape"></rect>
    <path d="m238.265,719.152v6.841c0,2.618-2.095,4.737-4.666,4.737h-53.844c0,1.721,1.374,3.117,3.07,3.117h127.664c4.391,0,7.951-3.614,7.951-8.072v-6.412c0-4.454-3.556-8.064-7.943-8.064h-127.671c-1.695,0-3.07,1.395-3.07,3.117h0s53.844,0,53.844,0c2.571,0,4.666,2.119,4.666,4.737Z" fill="#1769ff" class="color6f9f9e svgShape"></path>
    <path d="m179.755,714.415v16.315h49.945c2.433,0,4.405-2.002,4.405-4.48v-7.355c0-2.478-1.972-4.48-4.405-4.48h-49.945Z" fill="#e9e9ea" class="coloreaeae9 svgShape"></path>
    <path d="m229.7,730.73h3.899c2.571,0,4.666-2.119,4.666-4.737v-6.841c0-2.618-2.095-4.737-4.666-4.737h-3.899c2.433,0,4.405,2.002,4.405,4.48v7.355c0,2.478-1.972,4.48-4.405,4.48Z" fill="#bec5d3" class="colord3cfbe svgShape"></path>
    <rect width="73.313" height="10.45" x="240.969" y="717.898" fill="#49494a" class="color49494a svgShape"></rect>
    <polygon points="795.06 540.442 794.895 548.724 751.754 560.619 746.416 554.511 762.633 541.258 795.06 540.442" fill="#e8e8e8" class="colore8e8e8 svgShape"></polygon>
    <path d="m763.543,523.025l31.516,17.417s-38.966,8.945-46.388,16.62l-1.395-27.808,16.266-6.229Z" fill="#cccccc" class="colorcccccc svgShape"></path>
    <path d="m697.579,516.323s19.794-2.773,13.044-43.116l53.509,41.763s-.992,37.508-15.461,42.093l-51.092-40.74Z" fill="#1769ff" class="color6f9f9e svgShape"></path>
    <path d="m697.579,516.323s-4.901,2.503-3.495,4.774l50.752,42.047s4.086.824,6.917-2.525l-3.082-3.557-51.092-40.74Z" fill="#a6bce3" class="colore3d9a6 svgShape"></path>
    <path d="m743.415,713.538l-3.303-.85c-3.814-.981-7.737,1.336-8.718,5.149l-4.257,16.544c-.049.191-.09.381-.122.572-.297,1.741-1.472,3.198-3.169,3.688-2.122.612-4.236,1.254-6.285,1.684-5.782,1.212-14.253,1.4-25.695-3.476-.632-.269-1.347-.32-1.993-.088-.631.227-1.387.656-1.968,1.469-.012.017-.024.033-.035.05-1.078,1.558-.206,3.719,1.634,4.17,9.333,2.289,45.728,11.446,47.861,12.355,2.084.888,4.387-.79,4.104-3.037-.209-1.661-.152-3.393.056-5.067.641-5.154,3.266-9.779,4.548-14.761.831-3.228,1.661-6.457,2.492-9.685.981-3.813-1.336-7.737-5.149-8.718Z" fill="#a0c1fc" class="colorfcc6a0 svgShape"></path>
    <path d="m713.286 713.776-2.57-2.242c-2.968-2.588-7.514-2.277-10.102.69l-11.228 12.875c-.129.148-.251.301-.366.457-1.047 1.423-2.751 2.198-4.487 1.874-2.171-.405-4.348-.78-6.372-1.315-5.711-1.511-13.366-5.144-21.404-14.636-.444-.524-1.06-.89-1.742-.973-.665-.081-1.534-.036-2.418.43-.018.01-.036.019-.054.029-1.663.909-1.853 3.231-.411 4.46 7.314 6.233 35.731 30.747 37.23 32.517 1.464 1.728 4.275 1.262 5.031-.873.559-1.578 1.387-3.1 2.324-4.503 2.885-4.319 7.307-7.274 10.688-11.151 2.191-2.512 4.382-5.025 6.573-7.537 2.588-2.968 2.277-7.514-.69-10.102ZM748.437 558.618c-.006-.012-.012-.024-.019-.037-1.098-2.131-1.099-4.657.183-6.683l2.467-3.901c.389-.615.193-1.425-.423-1.811-2.445-1.533-5.702-.795-7.246 1.647l-1.103 1.744-4.188-9.596c-.564-1.292-2.083-1.888-3.375-1.324l-.73.319c-.633.276-1.095.783-1.34 1.378l-1.684-3.859c-.61-1.397-2.252-2.042-3.649-1.432l-.349.152c-1.397.609-2.042 2.251-1.432 3.648l1.087 2.491c-.628-.248-1.351-.257-2.014.033l-.611.267c-1.325.578-1.936 2.136-1.358 3.461l1.96 4.49c-.402-.066-.823-.044-1.23.105l-.975.358c-1.261.463-1.914 1.873-1.451 3.135l5.008 13.644c.054.148.124.285.202.416 1.943 5.497 5.15 11.711 9.823 12.233l15.452-8.294c.03-2.353-.424-7.517-3.004-12.582Z" fill="#a0c1fc" class="colorfcc6a0 svgShape"></path>
    <rect width="27.507" height="50.752" x="839.992" y="493.014" rx="12.473" ry="12.473" transform="rotate(-9.095 853.73 518.38)" fill="#a0c1fc" class="colorfcc6a0 svgShape"></rect>
    <path d="m828.854,466.937h27.626c9.806,0,17.767,7.961,17.767,17.767v25.138c0,12.526-10.17,22.696-22.696,22.696h0c-12.526,0-22.696-10.17-22.696-22.696v-42.905h0Z" transform="rotate(2.372 851.495 499.703)" fill="#a0c1fc" class="colorfcc6a0 svgShape"></path>
    <path d="m902.214,493.151c-1.65-3.924-4.554-7.199-8.244-9.299-3.072-5.955-9.155-10.145-16.329-10.442-10.635-.441-19.614,7.824-20.054,18.459-.181,4.374,1.127,8.454,3.45,11.789-.412,1.613-.67,3.289-.742,5.019-.554,13.371,9.836,24.659,23.208,25.213,13.371.554,24.659-9.837,25.213-23.208.279-6.746-2.232-12.957-6.502-17.532Z" fill="#3d3d3d" class="color3d3d3d svgShape"></path>
    <path d="m901.306,471.168c-.894-11.528-10.304-20.344-21.581-20.79.237-1.37.33-2.785.217-4.235-.728-9.389-8.929-16.41-18.317-15.682-7.732.599-13.847,6.272-15.361,13.498-.747-.044-1.502-.057-2.269.003-9.092.705-15.891,8.646-15.186,17.738.705,9.092,8.646,15.891,17.738,15.186,3.755-.291,7.106-1.83,9.712-4.161-.005.64.002,1.282.052,1.932.963,12.425,11.817,21.717,24.242,20.754,12.425-.963,21.717-11.817,20.754-24.242Z" fill="#3d3d3d" class="color3d3d3d svgShape"></path>
    <path d="m830.088,492.767s-2.087,4.58-4.397,7.03c-.665.705-.513,1.847.313,2.354.908.557,1.897,1.476,2.723,2.993l2.215-2.939-.855-9.438Z" fill="#a0c1fc" class="colorfcc6a0 svgShape"></path>
    <path d="m917.044,675.17c-1.946,3.129-4.811,5.233-8.87,6.089-5.27,1.109-10.808,1.084-16.371.664-5.797-.432-11.61-1.288-17.161-1.713-12.443-.949-24.887-1.895-37.337-2.739-13.002-.881-22.424-2.182-28.945-4.285-5.553-1.789-9.001-4.16-10.759-7.346-3.939-7.129.939-18.317,10.691-40.697,8.563-19.647,14.512-40.269,22.064-59.981,7.354-19.208,12.961-22.754,16.382-24.165,5.013-2.074,11.315-1.856,13.488-2.014,6.143-.455,10.264.213,13.429,2.13,8.634,5.232,35.131,26.594,41.19,68.759,4.062,28.268,9.385,53.755,2.198,65.297Z" fill="#85a4dd" class="colorddc385 svgShape"></path>
    <path d="m917.044,675.17l-85.438-21.6s-82.485-57.278-108.793-5.1c0,0-29.978,53.878-31.737,70.12-.077.708.28,1.388.896,1.747l18.902,11.038c.797.465,1.803.366,2.493-.247l14.542-12.911-2.056,10.413c-.148.75.358,1.473,1.114,1.59l19.106,2.949c1.053.163,2.057-.501,2.32-1.534l12.075-47.392s51.479,83.528,98.014,69.31c0,0,44.201-6.43,58.562-78.382Z" fill="#2d2d2d" class="color2d2d2d svgShape"></path>
    <path d="m855.356,587.882s-29.816,32.73-59.344,45.395c-14.72,6.314-31.847,2.317-42.34-9.784-12.677-14.62-32.696-36.844-26.692-51.499l24.631-8.117,27.409,36.125c1.517,1.839,4.225,2.128,6.095.651l45.263-35.733,24.978,22.963Z" fill="#85a4dd" class="colorddc385 svgShape"></path>
    <path d="m726.314,569.471l24.516-8.171c.757-.252,1.586.068,1.977.764l1.072,1.91c.514.916.061,2.074-.939,2.397l-25.242,8.157c-.957.309-1.968-.295-2.148-1.285l-.345-1.896c-.148-.815.325-1.614,1.111-1.876Z" fill="#545454" class="color545454 svgShape"></path>
    <rect width="11.961" height="74.187" x="370.512" y="256.083" transform="rotate(14.645 376.491 293.175)" fill="#1769ff" class="color6f9f9e svgShape"></rect>
    <rect width="11.961" height="71.916" x="391.658" y="258.317" fill="#91a7ce" class="colorceaa91 svgShape"></rect>
    <rect width="11.961" height="71.916" x="403.619" y="258.317" fill="#1769ff" class="color6f9f9e svgShape"></rect>
    <rect width="11.961" height="64.085" x="475.388" y="266.148" fill="#49494a" class="color49494a svgShape"></rect>
    <rect width="11.961" height="51.49" x="499.311" y="278.743" transform="rotate(180 505.291 304.488)" fill="#49494a" class="color49494a svgShape"></rect>
    <rect width="11.961" height="51.49" x="487.35" y="278.743" transform="rotate(180 493.33 304.488)" fill="#91a7ce" class="colorceaa91 svgShape"></rect>
    <rect width="11.961" height="51.49" x="451.465" y="278.743" fill="#91a7ce" class="colorceaa91 svgShape"></rect>
    <rect width="11.961" height="64.085" x="463.427" y="266.148" fill="#1769ff" class="color6f9f9e svgShape"></rect>
    <rect width="11.961" height="71.916" x="415.581" y="258.317" fill="#49494a" class="color49494a svgShape"></rect>
    <rect width="11.961" height="64.085" x="427.542" y="266.148" fill="#91a7ce" class="colorceaa91 svgShape"></rect>
    <rect width="11.961" height="71.916" x="439.504" y="258.317" fill="#1769ff" class="color6f9f9e svgShape"></rect>
    <path d="M545.601 216.255s0-2.728-3.819-6.547c-3.819-3.819-6.275-6.002-6.275-6.002 0 0-1.91 6.274 1.637 10.094 3.546 3.819 8.457 7.366 8.457 7.366v-4.91ZM540.058 233.292s0-2.728-3.819-6.547c-3.819-3.819-6.274-6.002-6.274-6.002 0 0-1.91 6.274 1.637 10.094 3.546 3.819 8.457 7.366 8.457 7.366v-4.911Z" fill="#85a4dd" class="colorddc385 svgShape"></path>
    <path d="M545.361 220.901s.288-2.713 4.49-6.107c4.201-3.394 6.874-5.305 6.874-5.305 0 0 1.236 6.441-2.694 9.864-3.93 3.423-9.188 6.431-9.188 6.431l.519-4.883ZM538.665 241.022s.572-2.668 5.106-5.602c4.535-2.934 7.393-4.554 7.393-4.554 0 0 .553 6.535-3.715 9.527-4.268 2.991-9.813 5.43-9.813 5.43l1.029-4.801ZM539.923 262.96s0-2.728 3.819-6.547c3.819-3.819 6.275-6.002 6.275-6.002 0 0 1.91 6.275-1.637 10.094-3.546 3.819-8.457 7.366-8.457 7.366v-4.91Z" fill="#85a4dd" class="colorddc385 svgShape"></path>
    <path d="M539.86 268.314s.388-2.7-2.85-7.024c-3.238-4.323-5.358-6.832-5.358-6.832 0 0-2.782 5.939.186 10.224 2.968 4.284 7.324 8.493 7.324 8.493l.698-4.861ZM536.094 284.184s0-2.728 3.819-6.547c3.819-3.819 6.274-6.002 6.274-6.002 0 0 1.91 6.275-1.637 10.094-3.546 3.819-8.457 7.366-8.457 7.366v-4.911ZM538.644 298.571s-.691-2.639 2.036-7.301c2.728-4.662 4.55-7.395 4.55-7.395 0 0 3.436 5.586.973 10.179-2.463 4.593-6.316 9.268-6.316 9.268l-1.244-4.75Z" fill="#85a4dd" class="colorddc385 svgShape"></path>
    <path d="m545.947,215.556c-.223,2.916-.555,5.933-1.046,8.47-1.51,7.8-5.284,12.833-6.794,19.878-1.51,7.045,2.824,16.122,1.664,25.172-1.16,9.049-4.683,14.082-3.677,20.121,1.007,6.039,6.291,22.394,6.291,22.394" fill="none" stroke="#262c38" stroke-linecap="round" stroke-linejoin="round" stroke-width=".476px" class="colorStroke263238 svgStroke"></path>
    <line x1="545.323" x2="549.439" y1="222.714" y2="219.556" fill="none" stroke="#262c38" stroke-linecap="round" stroke-linejoin="round" stroke-width=".476px" class="colorStroke263238 svgStroke"></line>
    <line x1="545.515" x2="543.792" y1="219.077" y2="216.014" fill="none" stroke="#262c38" stroke-linecap="round" stroke-linejoin="round" stroke-width=".476px" class="colorStroke263238 svgStroke"></line>
    <path d="M538.336 243.581s3.446-2.584 6.987-5.169M540.058 238.203s-2.871-5.629-6.125-9.362M540.059 266.841s2.68-5.265 7.37-9.859M539.389 270.669s-1.723-4.116-3.733-7.083c-2.01-2.967-2.297-3.35-2.297-3.35M536.094 289.197s1.38-3.5 3.103-6.276c1.723-2.776 4.02-5.264 4.02-5.264M539.888 303.322s-.403-3.267 1.032-6.043c1.436-2.776 3.063-6.413 3.733-7.849" fill="none" stroke="#262c38" stroke-linecap="round" stroke-linejoin="round" stroke-width=".476px" class="colorStroke263238 svgStroke"></path>
    <path d="M520.591 252.7s-.296-1.711 1.684-4.52c1.98-2.81 3.283-4.445 3.283-4.445 0 0 1.879 3.727.069 6.507-1.809 2.78-4.504 5.537-4.504 5.537l-.533-3.079ZM525.916 262.782s-.296-1.711 1.684-4.52c1.98-2.81 3.283-4.445 3.283-4.445 0 0 1.879 3.727.069 6.507-1.809 2.78-4.504 5.537-4.504 5.537l-.533-3.079Z" fill="#85a4dd" class="colorddc385 svgShape"></path>
    <path d="M521.246 255.588s-.475-1.67-3.478-3.342c-3.003-1.672-4.886-2.581-4.886-2.581 0 0-.076 4.173 2.76 5.893 2.836 1.72 6.46 3.035 6.46 3.035l-.855-3.006ZM527.629 267.478s-.648-1.611-3.81-2.958c-3.162-1.348-5.13-2.053-5.13-2.053 0 0 .363 4.158 3.364 5.571 3.001 1.413 6.743 2.34 6.743 2.34l-1.167-2.899ZM529.221 281.371s-.296-1.711-3.106-3.691c-2.81-1.98-4.586-3.082-4.586-3.082 0 0-.516 4.142 2.122 6.152 2.639 2.01 6.103 3.701 6.103 3.701l-.533-3.079Z" fill="#85a4dd" class="colorddc385 svgShape"></path>
    <path d="M529.843 284.722s-.536-1.651 1.025-4.714c1.561-3.063 2.618-4.866 2.618-4.866 0 0 2.389 3.422.993 6.431-1.396 3.009-3.671 6.121-3.671 6.121l-.965-2.972ZM534.636 298.521s.198-1.725 2.89-3.862c2.692-2.137 4.403-3.339 4.403-3.339 0 0 .752 4.106-1.768 6.263-2.519 2.157-5.882 4.043-5.882 4.043l.357-3.105ZM533.927 294.265s-.296-1.711-3.106-3.691c-2.81-1.98-4.586-3.082-4.586-3.082 0 0-.516 4.142 2.122 6.152 2.638 2.01 6.103 3.701 6.103 3.701l-.533-3.079ZM533.89 303.564s.147-1.73-2.07-4.357c-2.216-2.628-3.656-4.143-3.656-4.143 0 0-1.549 3.876.495 6.489 2.044 2.613 4.967 5.126 4.967 5.126l.264-3.114Z" fill="#85a4dd" class="colorddc385 svgShape"></path>
    <path d="m520.298,252.299c.457,1.804.992,3.66,1.576,5.198,1.793,4.728,4.707,7.474,6.418,11.728,1.712,4.254-.021,10.417,1.689,15.965,1.71,5.549,4.465,8.322,4.49,12.218.024,3.896-1.514,14.726-1.514,14.726" fill="none" stroke="#262c38" stroke-linecap="round" stroke-linejoin="round" stroke-width=".476px" class="colorStroke263238 svgStroke"></path>
    <line x1="521.466" x2="518.543" y1="256.721" y2="255.187" fill="none" stroke="#262c38" stroke-linecap="round" stroke-linejoin="round" stroke-width=".476px" class="colorStroke263238 svgStroke"></line>
    <line x1="520.952" x2="521.699" y1="254.46" y2="252.353" fill="none" stroke="#262c38" stroke-linecap="round" stroke-linejoin="round" stroke-width=".476px" class="colorStroke263238 svgStroke"></line>
    <path d="M528.113 269.047s-2.442-1.247-4.943-2.483M526.449 265.861s1.189-3.842 2.825-6.536M529.558 283.82s-2.252-3.01-5.692-5.382M530.394 286.148s.634-2.768 1.572-4.847c.938-2.079 1.077-2.35 1.077-2.35M534.339 300.364s1.938-2.375 3.144-3.264c1.206-.889 2.042-1.776 2.042-1.776M534.471 297.408s-1.246-2.045-2.627-3.598c-1.382-1.554-3.092-2.865-3.092-2.865M533.625 306.678s-.102-2.092-1.303-3.677c-1.202-1.585-2.617-3.689-3.193-4.517" fill="none" stroke="#262c38" stroke-linecap="round" stroke-linejoin="round" stroke-width=".476px" class="colorStroke263238 svgStroke"></path>
    <path d="m546.345,330.791h-17.395c-.716,0-1.296-.58-1.296-1.296l-2.499-19.249h24.984l-2.498,19.249c0,.716-.58,1.296-1.296,1.296Z" fill="#6f97e1" class="colore1a36f svgShape"></path>
    <rect width="213.598" height="7.171" x="347.976" y="330.289" fill="#333333" class="color333333 svgShape"></rect>
    <rect width="11.961" height="74.187" x="539.333" y="410.59" transform="rotate(165.355 545.314 447.684)" fill="#1769ff" class="color6f9f9e svgShape"></rect>
    <rect width="11.961" height="71.916" x="518.188" y="412.824" transform="rotate(180 524.168 448.783)" fill="#91a7ce" class="colorceaa91 svgShape"></rect>
    <rect width="11.961" height="71.916" x="506.226" y="412.824" transform="rotate(180 512.207 448.783)" fill="#1769ff" class="color6f9f9e svgShape"></rect>
    <rect width="11.961" height="64.085" x="434.457" y="420.655" transform="rotate(180 440.438 452.698)" fill="#49494a" class="color49494a svgShape"></rect>
    <rect width="11.961" height="51.49" x="410.534" y="433.25" fill="#49494a" class="color49494a svgShape"></rect>
    <rect width="11.961" height="51.49" x="422.496" y="433.25" fill="#91a7ce" class="colorceaa91 svgShape"></rect>
    <rect width="11.961" height="51.49" x="458.38" y="433.25" transform="rotate(180 464.361 458.995)" fill="#91a7ce" class="colorceaa91 svgShape"></rect>
    <rect width="11.961" height="64.085" x="446.419" y="420.655" transform="rotate(180 452.4 452.698)" fill="#1769ff" class="color6f9f9e svgShape"></rect>
    <rect width="11.961" height="71.916" x="494.265" y="412.824" transform="rotate(180 500.245 448.783)" fill="#49494a" class="color49494a svgShape"></rect>
    <rect width="11.961" height="64.085" x="482.303" y="420.655" transform="rotate(180 488.284 452.698)" fill="#91a7ce" class="colorceaa91 svgShape"></rect>
    <rect width="11.961" height="71.916" x="470.342" y="412.824" transform="rotate(180 476.322 448.783)" fill="#1769ff" class="color6f9f9e svgShape"></rect>
    <path d="M376.206 370.762s0-2.728 3.819-6.547c3.819-3.819 6.275-6.002 6.275-6.002 0 0 1.91 6.274-1.637 10.094-3.546 3.819-8.457 7.366-8.457 7.366v-4.91ZM381.749 387.799s0-2.728 3.819-6.547c3.819-3.819 6.274-6.002 6.274-6.002 0 0 1.91 6.274-1.637 10.094-3.546 3.819-8.457 7.366-8.457 7.366v-4.911Z" fill="#85a4dd" class="colorddc385 svgShape"></path>
    <path d="M376.446 375.409s-.288-2.713-4.49-6.107c-4.201-3.394-6.874-5.305-6.874-5.305 0 0-1.236 6.441 2.694 9.864 3.93 3.423 9.188 6.431 9.188 6.431l-.519-4.883ZM383.142 395.529s-.572-2.668-5.106-5.602c-4.535-2.934-7.393-4.554-7.393-4.554 0 0-.553 6.535 3.715 9.527 4.268 2.991 9.813 5.43 9.813 5.43l-1.029-4.801ZM381.883 417.467s0-2.728-3.819-6.547c-3.819-3.819-6.275-6.002-6.275-6.002 0 0-1.91 6.275 1.637 10.094 3.546 3.819 8.457 7.366 8.457 7.366v-4.91Z" fill="#85a4dd" class="colorddc385 svgShape"></path>
    <path d="M381.947 422.822s-.388-2.7 2.85-7.024c3.238-4.323 5.358-6.832 5.358-6.832 0 0 2.782 5.939-.186 10.224-2.968 4.284-7.324 8.493-7.324 8.493l-.698-4.861ZM385.713 438.691s0-2.728-3.819-6.547c-3.819-3.819-6.274-6.002-6.274-6.002 0 0-1.91 6.275 1.637 10.094 3.546 3.819 8.457 7.366 8.457 7.366v-4.911ZM383.162 453.078s.691-2.639-2.036-7.301c-2.728-4.662-4.55-7.395-4.55-7.395 0 0-3.436 5.586-.973 10.179 2.463 4.593 6.316 9.268 6.316 9.268l1.244-4.75Z" fill="#85a4dd" class="colorddc385 svgShape"></path>
    <path d="m375.86,370.063c.223,2.916.555,5.933,1.046,8.47,1.51,7.8,5.284,12.833,6.794,19.878,1.51,7.045-2.824,16.122-1.664,25.172,1.16,9.049,4.683,14.082,3.677,20.121-1.007,6.039-6.291,22.394-6.291,22.394" fill="none" stroke="#262c38" stroke-linecap="round" stroke-linejoin="round" stroke-width=".476px" class="colorStroke263238 svgStroke"></path>
    <line x1="376.484" x2="372.368" y1="377.222" y2="374.063" fill="none" stroke="#262c38" stroke-linecap="round" stroke-linejoin="round" stroke-width=".476px" class="colorStroke263238 svgStroke"></line>
    <line x1="376.292" x2="378.015" y1="373.584" y2="370.521" fill="none" stroke="#262c38" stroke-linecap="round" stroke-linejoin="round" stroke-width=".476px" class="colorStroke263238 svgStroke"></line>
    <path d="M383.471 398.088s-3.446-2.584-6.987-5.169M381.749 392.71s2.871-5.629 6.125-9.362M381.748 421.348s-2.68-5.265-7.37-9.859M382.418 425.177s1.723-4.116 3.733-7.083c2.01-2.967 2.297-3.35 2.297-3.35M385.713 443.704s-1.38-3.5-3.103-6.276c-1.723-2.776-4.02-5.264-4.02-5.264M381.919 457.829s.403-3.267-1.032-6.043c-1.436-2.776-3.063-6.413-3.733-7.849" fill="none" stroke="#262c38" stroke-linecap="round" stroke-linejoin="round" stroke-width=".476px" class="colorStroke263238 svgStroke"></path>
    <path d="M401.216 407.207s.296-1.711-1.684-4.52c-1.98-2.81-3.283-4.445-3.283-4.445 0 0-1.879 3.727-.069 6.507 1.809 2.78 4.504 5.537 4.504 5.537l.533-3.079ZM395.89 417.289s.296-1.711-1.684-4.52c-1.98-2.81-3.283-4.445-3.283-4.445 0 0-1.879 3.727-.069 6.507 1.809 2.78 4.504 5.537 4.504 5.537l.533-3.079Z" fill="#85a4dd" class="colorddc385 svgShape"></path>
    <path d="M400.561 410.095s.475-1.67 3.478-3.342c3.003-1.672 4.886-2.581 4.886-2.581 0 0 .076 4.173-2.76 5.893-2.836 1.72-6.46 3.035-6.46 3.035l.855-3.006ZM394.178 421.985s.648-1.611 3.81-2.958c3.162-1.348 5.13-2.053 5.13-2.053 0 0-.363 4.158-3.364 5.571-3.001 1.413-6.743 2.34-6.743 2.34l1.167-2.899ZM392.585 435.878s.296-1.711 3.106-3.691c2.81-1.98 4.586-3.082 4.586-3.082 0 0 .516 4.142-2.122 6.152-2.639 2.01-6.103 3.701-6.103 3.701l.533-3.079Z" fill="#85a4dd" class="colorddc385 svgShape"></path>
    <path d="M391.964 439.229s.536-1.651-1.025-4.714c-1.561-3.063-2.618-4.866-2.618-4.866 0 0-2.389 3.422-.993 6.431 1.396 3.009 3.671 6.121 3.671 6.121l.965-2.972ZM387.17 453.028s-.198-1.725-2.89-3.862c-2.692-2.137-4.403-3.339-4.403-3.339 0 0-.752 4.106 1.768 6.263 2.519 2.157 5.882 4.043 5.882 4.043l-.357-3.105ZM387.88 448.772s.296-1.711 3.106-3.691c2.81-1.98 4.586-3.082 4.586-3.082 0 0 .516 4.142-2.122 6.152-2.638 2.01-6.103 3.701-6.103 3.701l.533-3.079ZM387.917 458.071s-.147-1.73 2.07-4.357c2.216-2.628 3.656-4.143 3.656-4.143 0 0 1.549 3.876-.495 6.489-2.044 2.613-4.967 5.126-4.967 5.126l-.264-3.114Z" fill="#85a4dd" class="colorddc385 svgShape"></path>
    <path d="m401.509,406.806c-.457,1.804-.992,3.66-1.576,5.198-1.793,4.728-4.707,7.474-6.418,11.728-1.712,4.254.021,10.417-1.689,15.965-1.71,5.549-4.465,8.322-4.49,12.218-.024,3.896,1.514,14.726,1.514,14.726" fill="none" stroke="#262c38" stroke-linecap="round" stroke-linejoin="round" stroke-width=".476px" class="colorStroke263238 svgStroke"></path>
    <line x1="400.34" x2="403.264" y1="411.228" y2="409.694" fill="none" stroke="#262c38" stroke-linecap="round" stroke-linejoin="round" stroke-width=".476px" class="colorStroke263238 svgStroke"></line>
    <line x1="400.855" x2="400.107" y1="408.968" y2="406.86" fill="none" stroke="#262c38" stroke-linecap="round" stroke-linejoin="round" stroke-width=".476px" class="colorStroke263238 svgStroke"></line>
    <path d="M393.693 423.554s2.442-1.247 4.943-2.483M395.357 420.368s-1.189-3.842-2.825-6.536M392.249 438.327s2.252-3.01 5.692-5.382M391.413 440.655s-.634-2.768-1.572-4.847c-.938-2.079-1.077-2.35-1.077-2.35M387.468 454.871s-1.938-2.375-3.144-3.264c-1.206-.889-2.042-1.776-2.042-1.776M387.336 451.916s1.246-2.045 2.627-3.598c1.382-1.554 3.092-2.865 3.092-2.865M388.181 461.185s.102-2.092 1.303-3.677c1.202-1.585 2.617-3.689 3.193-4.517" fill="none" stroke="#262c38" stroke-linecap="round" stroke-linejoin="round" stroke-width=".476px" class="colorStroke263238 svgStroke"></path>
    <path d="m375.462,485.298h17.395c.716,0,1.296-.58,1.296-1.296l2.499-19.249h-24.984l2.498,19.249c0,.716.58,1.296,1.296,1.296Z" fill="#6f97e1" class="colore1a36f svgShape"></path>
    <rect width="213.598" height="7.171" x="360.233" y="484.796" transform="rotate(180 467.031 488.382)" fill="#333333" class="color333333 svgShape"></rect>
    <path d="m347.388,661.138l-2.567-6.221-1.491,6.606c-.128.263-.192.564-.165.881l5.824,69.419c.074.887.811,1.543,1.646,1.464l1.511-.143c.834-.079,1.451-.863,1.376-1.75l-5.824-69.419c-.027-.316-.14-.601-.31-.836Z" fill="#232323" class="color232323 svgShape"></path>
    <path d="m356.514,661.2l-2.037-6.439-2.037,6.439c-.149.25-.238.544-.238.862v69.695c0,.891.679,1.613,1.517,1.613h1.517c.838,0,1.517-.722,1.517-1.613v-69.695c0-.318-.089-.612-.239-.862Z" fill="#1769ff" class="color6f9f9e svgShape"></path>
    <path d="m366.879,661.953l-2.037-6.439-2.037,6.439c-.149.25-.238.544-.238.862v69.695c0,.891.679,1.613,1.517,1.613h1.517c.838,0,1.517-.722,1.517-1.613v-69.695c0-.318-.089-.612-.239-.862Z" fill="#232323" class="color232323 svgShape"></path>
    <path d="m384.675,661.643l-.925-6.722-3.083,5.95c-.189.217-.326.49-.379.803l-11.679,68.579c-.149.877.398,1.716,1.222,1.875l1.493.288c.824.159,1.614-.423,1.763-1.3l11.679-68.579c.053-.313.015-.619-.09-.893Z" fill="#1769ff" class="color6f9f9e svgShape"></path>
    <path d="m392.509,663.917l-.925-6.722-3.083,5.95c-.189.217-.326.49-.379.803l-11.679,68.579c-.149.877.398,1.716,1.222,1.875l1.493.288c.824.159,1.614-.423,1.763-1.3l11.679-68.579c.053-.313.015-.619-.09-.893Z" fill="#232323" class="color232323 svgShape"></path>
    <rect width="43.298" height="61.083" x="344.911" y="694.658" rx="2.391" ry="2.391" fill="#a6bce3" class="colore3d9a6 svgShape"></rect>
  </g>
</svg>
